<svg width="1024" height="1024" viewBox="0 0 1024 1024" xmlns="http://www.w3.org/2000/svg">
  <rect width="1024" height="1024" fill="#000000"/>
  <g stroke="#3a9eff" stroke-width="3.5" stroke-linecap="round" fill="none">
    <line x1="298.4" y1="447.0" x2="298.4" y2="577.0"/>
    <line x1="298.4" y1="577.0" x2="411.0" y2="642.0"/>
    <line x1="411.0" y1="642.0" x2="523.6" y2="577.0"/>
    <line x1="523.6" y1="577.0" x2="523.6" y2="447.0"/>
    <line x1="523.6" y1="447.0" x2="411.0" y2="382.0"/>
    <line x1="411.0" y1="382.0" x2="298.4" y2="447.0"/>
    <line x1="523.6" y1="447.0" x2="647.2" y2="406.8"/>
    <line x1="647.2" y1="406.8" x2="723.6" y2="512.0"/>
    <line x1="723.6" y1="512.0" x2="647.2" y2="617.2"/>
    <line x1="647.2" y1="617.2" x2="523.6" y2="577.0"/>
    <line x1="411.0" y1="382.0" x2="411.0" y2="297.0"/>
    <line x1="411.0" y1="297.0" x2="445.4" y2="247.9"/>
    <line x1="411.0" y1="297.0" x2="376.6" y2="247.9"/>
    <line x1="298.4" y1="577.0" x2="224.8" y2="619.5"/>
    <line x1="723.6" y1="512.0" x2="808.6" y2="512.0"/>
    <line x1="647.2" y1="617.2" x2="673.4" y2="698.0"/>
  </g>
  <g fill="#4d8fff">
    <circle cx="298.4" cy="447.0" r="6"/>
    <circle cx="312.3" cy="455.0" r="6"/>
    <circle cx="298.4" cy="463.0" r="6"/>
    <circle cx="284.6" cy="455.0" r="6"/>
    <circle cx="284.6" cy="439.0" r="6"/>
    <circle cx="298.4" cy="431.0" r="6"/>
    <circle cx="312.3" cy="439.0" r="6"/>
    <circle cx="411.0" cy="642.0" r="6"/>
    <circle cx="424.8" cy="650.0" r="6"/>
    <circle cx="411.0" cy="658.0" r="6"/>
    <circle cx="397.1" cy="650.0" r="6"/>
    <circle cx="397.1" cy="634.0" r="6"/>
    <circle cx="411.0" cy="626.0" r="6"/>
    <circle cx="424.8" cy="634.0" r="6"/>
    <circle cx="647.2" cy="406.8" r="6"/>
    <circle cx="661.0" cy="414.8" r="6"/>
    <circle cx="647.2" cy="422.8" r="6"/>
    <circle cx="633.3" cy="414.8" r="6"/>
    <circle cx="633.3" cy="398.8" r="6"/>
    <circle cx="647.2" cy="390.8" r="6"/>
    <circle cx="661.0" cy="398.8" r="6"/>
    <circle cx="647.2" cy="617.2" r="6"/>
    <circle cx="661.0" cy="625.2" r="6"/>
    <circle cx="647.2" cy="633.2" r="6"/>
    <circle cx="633.3" cy="625.2" r="6"/>
    <circle cx="633.3" cy="609.2" r="6"/>
    <circle cx="647.2" cy="601.2" r="6"/>
    <circle cx="661.0" cy="609.2" r="6"/>
    <circle cx="411.0" cy="297.0" r="6"/>
    <circle cx="424.8" cy="305.0" r="6"/>
    <circle cx="411.0" cy="313.0" r="6"/>
    <circle cx="397.1" cy="305.0" r="6"/>
    <circle cx="397.1" cy="289.0" r="6"/>
    <circle cx="411.0" cy="281.0" r="6"/>
    <circle cx="424.8" cy="289.0" r="6"/>
  </g>
  <g fill="#ffd84a">
    <circle cx="312.3" cy="585.0" r="6"/>
    <circle cx="298.4" cy="593.0" r="6"/>
    <circle cx="284.6" cy="585.0" r="6"/>
    <circle cx="284.6" cy="569.0" r="6"/>
    <circle cx="298.4" cy="561.0" r="6"/>
    <circle cx="312.3" cy="569.0" r="6"/>
    <circle cx="537.4" cy="585.0" r="6"/>
    <circle cx="523.6" cy="593.0" r="6"/>
    <circle cx="509.7" cy="585.0" r="6"/>
    <circle cx="509.7" cy="569.0" r="6"/>
    <circle cx="523.6" cy="561.0" r="6"/>
    <circle cx="537.4" cy="569.0" r="6"/>
    <circle cx="537.4" cy="455.0" r="6"/>
    <circle cx="523.6" cy="463.0" r="6"/>
    <circle cx="509.7" cy="455.0" r="6"/>
    <circle cx="509.7" cy="439.0" r="6"/>
    <circle cx="523.6" cy="431.0" r="6"/>
    <circle cx="537.4" cy="439.0" r="6"/>
    <circle cx="424.8" cy="390.0" r="6"/>
    <circle cx="411.0" cy="398.0" r="6"/>
    <circle cx="397.1" cy="390.0" r="6"/>
    <circle cx="397.1" cy="374.0" r="6"/>
    <circle cx="411.0" cy="366.0" r="6"/>
    <circle cx="424.8" cy="374.0" r="6"/>
    <circle cx="737.5" cy="520.0" r="6"/>
    <circle cx="723.6" cy="528.0" r="6"/>
    <circle cx="709.7" cy="520.0" r="6"/>
    <circle cx="709.7" cy="504.0" r="6"/>
    <circle cx="723.6" cy="496.0" r="6"/>
    <circle cx="737.5" cy="504.0" r="6"/>
  </g>
  <g fill="#ffffff">
    <circle cx="445.4" cy="247.9" r="6"/>
    <circle cx="376.6" cy="247.9" r="6"/>
    <circle cx="224.8" cy="619.5" r="6"/>
    <circle cx="808.6" cy="512.0" r="6"/>
    <circle cx="673.4" cy="698.0" r="6"/>
  </g>
</svg>
