<svg width="1024" height="1024" viewBox="0 0 1024 1024" xmlns="http://www.w3.org/2000/svg">
  <rect width="1024" height="1024" fill="#000000"/>
  <g stroke="#3a9eff" stroke-width="3.5" stroke-linecap="round" fill="none">
    <line x1="173.7" y1="287.5" x2="173.7" y2="352.5"/>
    <line x1="173.7" y1="352.5" x2="230.0" y2="385.0"/>
    <line x1="230.0" y1="385.0" x2="286.3" y2="352.5"/>
    <line x1="286.3" y1="352.5" x2="286.3" y2="287.5"/>
    <line x1="286.3" y1="287.5" x2="230.0" y2="255.0"/>
    <line x1="230.0" y1="255.0" x2="173.7" y2="287.5"/>
    <line x1="286.3" y1="287.5" x2="348.1" y2="267.4"/>
    <line x1="348.1" y1="267.4" x2="386.3" y2="320.0"/>
    <line x1="386.3" y1="320.0" x2="348.1" y2="372.6"/>
    <line x1="348.1" y1="372.6" x2="286.3" y2="352.5"/>
    <line x1="230.0" y1="255.0" x2="230.0" y2="205.0"/>
    <line x1="230.0" y1="205.0" x2="255.8" y2="168.1"/>
    <line x1="230.0" y1="205.0" x2="204.2" y2="168.1"/>
    <line x1="173.7" y1="352.5" x2="130.4" y2="377.5"/>
    <line x1="386.3" y1="320.0" x2="436.3" y2="320.0"/>
    <line x1="348.1" y1="372.6" x2="428.7" y2="456.8"/>
    <line x1="500.0" y1="405.0" x2="428.7" y2="456.8"/>
    <line x1="428.7" y1="456.8" x2="455.9" y2="540.7"/>
    <line x1="455.9" y1="540.7" x2="544.1" y2="540.7"/>
    <line x1="544.1" y1="540.7" x2="571.3" y2="456.8"/>
    <line x1="571.3" y1="456.8" x2="500.0" y2="405.0"/>
    <line x1="571.3" y1="456.8" x2="611.3" y2="387.5"/>
    <line x1="455.9" y1="540.7" x2="423.6" y2="585.2"/>
    <line x1="423.6" y1="585.2" x2="397.1" y2="621.6"/>
    <line x1="544.1" y1="540.7" x2="576.4" y2="585.2"/>
    <line x1="576.4" y1="585.2" x2="602.9" y2="621.6"/>
    <line x1="428.7" y1="456.8" x2="417.2" y2="403.0"/>
    <line x1="455.9" y1="540.7" x2="401.2" y2="534.9"/>
    <line x1="544.1" y1="540.7" x2="598.8" y2="546.4"/>
    <line x1="571.3" y1="456.8" x2="582.8" y2="403.0"/>
    <line x1="611.3" y1="387.5" x2="588.8" y2="348.6"/>
    <line x1="611.3" y1="387.5" x2="655.6" y2="379.7"/>
    <line x1="611.3" y1="387.5" x2="659.3" y2="387.5"/>
    <line x1="659.3" y1="387.5" x2="707.3" y2="387.5"/>
    <line x1="707.3" y1="387.5" x2="707.3" y2="339.5"/>
    <line x1="707.3" y1="387.5" x2="707.3" y2="435.5"/>
    <line x1="707.3" y1="435.5" x2="707.3" y2="477.5"/>
    <line x1="707.3" y1="387.5" x2="755.3" y2="387.5"/>
    <line x1="755.3" y1="387.5" x2="803.3" y2="387.5"/>
    <line x1="803.3" y1="387.5" x2="803.3" y2="339.5"/>
    <line x1="803.3" y1="387.5" x2="803.3" y2="435.5"/>
    <line x1="803.3" y1="435.5" x2="803.3" y2="477.5"/>
    <line x1="803.3" y1="387.5" x2="851.3" y2="387.5"/>
    <line x1="851.3" y1="387.5" x2="899.3" y2="387.5"/>
    <line x1="899.3" y1="387.5" x2="947.3" y2="387.5"/>
    <line x1="899.3" y1="387.5" x2="899.3" y2="339.5"/>
    <line x1="899.3" y1="339.5" x2="899.3" y2="297.5"/>
    <line x1="899.3" y1="387.5" x2="899.3" y2="435.5"/>
    <line x1="899.3" y1="435.5" x2="899.3" y2="477.5"/>
  </g>
  <g fill="#4d8fff">
    <circle cx="173.7" cy="287.5" r="4.5"/>
    <circle cx="185.0" cy="294.0" r="4.5"/>
    <circle cx="173.7" cy="300.5" r="4.5"/>
    <circle cx="162.5" cy="294.0" r="4.5"/>
    <circle cx="162.5" cy="281.0" r="4.5"/>
    <circle cx="173.7" cy="274.5" r="4.5"/>
    <circle cx="185.0" cy="281.0" r="4.5"/>
    <circle cx="230.0" cy="385.0" r="4.5"/>
    <circle cx="241.3" cy="391.5" r="4.5"/>
    <circle cx="230.0" cy="398.0" r="4.5"/>
    <circle cx="218.7" cy="391.5" r="4.5"/>
    <circle cx="218.7" cy="378.5" r="4.5"/>
    <circle cx="230.0" cy="372.0" r="4.5"/>
    <circle cx="241.3" cy="378.5" r="4.5"/>
    <circle cx="348.1" cy="267.4" r="4.5"/>
    <circle cx="359.4" cy="273.9" r="4.5"/>
    <circle cx="348.1" cy="280.4" r="4.5"/>
    <circle cx="336.8" cy="273.9" r="4.5"/>
    <circle cx="336.8" cy="260.9" r="4.5"/>
    <circle cx="348.1" cy="254.4" r="4.5"/>
    <circle cx="359.4" cy="260.9" r="4.5"/>
    <circle cx="348.1" cy="372.6" r="4.5"/>
    <circle cx="359.4" cy="379.1" r="4.5"/>
    <circle cx="348.1" cy="385.6" r="4.5"/>
    <circle cx="336.8" cy="379.1" r="4.5"/>
    <circle cx="336.8" cy="366.1" r="4.5"/>
    <circle cx="348.1" cy="359.6" r="4.5"/>
    <circle cx="359.4" cy="366.1" r="4.5"/>
    <circle cx="230.0" cy="205.0" r="4.5"/>
    <circle cx="241.3" cy="211.5" r="4.5"/>
    <circle cx="230.0" cy="218.0" r="4.5"/>
    <circle cx="218.7" cy="211.5" r="4.5"/>
    <circle cx="218.7" cy="198.5" r="4.5"/>
    <circle cx="230.0" cy="192.0" r="4.5"/>
    <circle cx="241.3" cy="198.5" r="4.5"/>
  </g>
  <g fill="#ffd84a">
    <circle cx="185.0" cy="359.0" r="4.5"/>
    <circle cx="173.7" cy="365.5" r="4.5"/>
    <circle cx="162.5" cy="359.0" r="4.5"/>
    <circle cx="162.5" cy="346.0" r="4.5"/>
    <circle cx="173.7" cy="339.5" r="4.5"/>
    <circle cx="185.0" cy="346.0" r="4.5"/>
    <circle cx="297.5" cy="359.0" r="4.5"/>
    <circle cx="286.3" cy="365.5" r="4.5"/>
    <circle cx="275.0" cy="359.0" r="4.5"/>
    <circle cx="275.0" cy="346.0" r="4.5"/>
    <circle cx="286.3" cy="339.5" r="4.5"/>
    <circle cx="297.5" cy="346.0" r="4.5"/>
    <circle cx="297.5" cy="294.0" r="4.5"/>
    <circle cx="286.3" cy="300.5" r="4.5"/>
    <circle cx="275.0" cy="294.0" r="4.5"/>
    <circle cx="275.0" cy="281.0" r="4.5"/>
    <circle cx="286.3" cy="274.5" r="4.5"/>
    <circle cx="297.5" cy="281.0" r="4.5"/>
    <circle cx="241.3" cy="261.5" r="4.5"/>
    <circle cx="230.0" cy="268.0" r="4.5"/>
    <circle cx="218.7" cy="261.5" r="4.5"/>
    <circle cx="218.7" cy="248.5" r="4.5"/>
    <circle cx="230.0" cy="242.0" r="4.5"/>
    <circle cx="241.3" cy="248.5" r="4.5"/>
    <circle cx="397.6" cy="326.5" r="4.5"/>
    <circle cx="386.3" cy="333.0" r="4.5"/>
    <circle cx="375.0" cy="326.5" r="4.5"/>
    <circle cx="375.0" cy="313.5" r="4.5"/>
    <circle cx="386.3" cy="307.0" r="4.5"/>
    <circle cx="397.6" cy="313.5" r="4.5"/>
    <circle cx="439.9" cy="463.3" r="4.5"/>
    <circle cx="428.7" cy="469.8" r="4.5"/>
    <circle cx="417.4" cy="463.3" r="4.5"/>
    <circle cx="417.4" cy="450.3" r="4.5"/>
    <circle cx="428.7" cy="443.8" r="4.5"/>
    <circle cx="439.9" cy="450.3" r="4.5"/>
    <circle cx="467.2" cy="547.2" r="4.5"/>
    <circle cx="455.9" cy="553.7" r="4.5"/>
    <circle cx="444.7" cy="547.2" r="4.5"/>
    <circle cx="444.7" cy="534.2" r="4.5"/>
    <circle cx="455.9" cy="527.7" r="4.5"/>
    <circle cx="467.2" cy="534.2" r="4.5"/>
    <circle cx="555.3" cy="547.2" r="4.5"/>
    <circle cx="544.1" cy="553.7" r="4.5"/>
    <circle cx="532.8" cy="547.2" r="4.5"/>
    <circle cx="532.8" cy="534.2" r="4.5"/>
    <circle cx="544.1" cy="527.7" r="4.5"/>
    <circle cx="555.3" cy="534.2" r="4.5"/>
    <circle cx="582.6" cy="463.3" r="4.5"/>
    <circle cx="571.3" cy="469.8" r="4.5"/>
    <circle cx="560.1" cy="463.3" r="4.5"/>
    <circle cx="560.1" cy="450.3" r="4.5"/>
    <circle cx="571.3" cy="443.8" r="4.5"/>
    <circle cx="582.6" cy="450.3" r="4.5"/>
    <circle cx="622.6" cy="394.0" r="4.5"/>
    <circle cx="611.3" cy="400.5" r="4.5"/>
    <circle cx="600.1" cy="394.0" r="4.5"/>
    <circle cx="600.1" cy="381.0" r="4.5"/>
    <circle cx="611.3" cy="374.5" r="4.5"/>
    <circle cx="622.6" cy="381.0" r="4.5"/>
  </g>
  <g fill="#ffffff">
    <circle cx="255.8" cy="168.1" r="4.5"/>
    <circle cx="204.2" cy="168.1" r="4.5"/>
    <circle cx="130.4" cy="377.5" r="4.5"/>
    <circle cx="436.3" cy="320.0" r="4.5"/>
    <circle cx="397.1" cy="621.6" r="4.5"/>
    <circle cx="602.9" cy="621.6" r="4.5"/>
    <circle cx="417.2" cy="403.0" r="4.5"/>
    <circle cx="401.2" cy="534.9" r="4.5"/>
    <circle cx="598.8" cy="546.4" r="4.5"/>
    <circle cx="582.8" cy="403.0" r="4.5"/>
    <circle cx="588.8" cy="348.6" r="4.5"/>
    <circle cx="655.6" cy="379.7" r="4.5"/>
    <circle cx="707.3" cy="477.5" r="4.5"/>
    <circle cx="803.3" cy="477.5" r="4.5"/>
    <circle cx="899.3" cy="297.5" r="4.5"/>
    <circle cx="899.3" cy="477.5" r="4.5"/>
  </g>
  <g fill="#ff4d4d">
    <circle cx="500.0" cy="399.1" r="4.5"/>
    <circle cx="500.0" cy="410.9" r="4.5"/>
    <circle cx="511.3" cy="411.5" r="4.5"/>
    <circle cx="500.0" cy="418.0" r="4.5"/>
    <circle cx="488.7" cy="411.5" r="4.5"/>
    <circle cx="488.7" cy="398.5" r="4.5"/>
    <circle cx="500.0" cy="392.0" r="4.5"/>
    <circle cx="511.3" cy="398.5" r="4.5"/>
    <circle cx="423.6" cy="579.3" r="4.5"/>
    <circle cx="423.6" cy="591.0" r="4.5"/>
    <circle cx="434.8" cy="591.7" r="4.5"/>
    <circle cx="423.6" cy="598.2" r="4.5"/>
    <circle cx="412.3" cy="591.7" r="4.5"/>
    <circle cx="412.3" cy="578.7" r="4.5"/>
    <circle cx="423.6" cy="572.2" r="4.5"/>
    <circle cx="434.8" cy="578.7" r="4.5"/>
    <circle cx="576.4" cy="579.3" r="4.5"/>
    <circle cx="576.4" cy="591.0" r="4.5"/>
    <circle cx="587.7" cy="591.7" r="4.5"/>
    <circle cx="576.4" cy="598.2" r="4.5"/>
    <circle cx="565.2" cy="591.7" r="4.5"/>
    <circle cx="565.2" cy="578.7" r="4.5"/>
    <circle cx="576.4" cy="572.2" r="4.5"/>
    <circle cx="587.7" cy="578.7" r="4.5"/>
    <circle cx="659.3" cy="381.7" r="4.5"/>
    <circle cx="659.3" cy="393.4" r="4.5"/>
    <circle cx="670.6" cy="394.0" r="4.5"/>
    <circle cx="659.3" cy="400.5" r="4.5"/>
    <circle cx="648.1" cy="394.0" r="4.5"/>
    <circle cx="648.1" cy="381.0" r="4.5"/>
    <circle cx="659.3" cy="374.5" r="4.5"/>
    <circle cx="670.6" cy="381.0" r="4.5"/>
    <circle cx="707.3" cy="333.7" r="4.5"/>
    <circle cx="707.3" cy="345.4" r="4.5"/>
    <circle cx="718.6" cy="346.0" r="4.5"/>
    <circle cx="707.3" cy="352.5" r="4.5"/>
    <circle cx="696.1" cy="346.0" r="4.5"/>
    <circle cx="696.1" cy="333.0" r="4.5"/>
    <circle cx="707.3" cy="326.5" r="4.5"/>
    <circle cx="718.6" cy="333.0" r="4.5"/>
    <circle cx="707.3" cy="429.7" r="4.5"/>
    <circle cx="707.3" cy="441.4" r="4.5"/>
    <circle cx="718.6" cy="442.0" r="4.5"/>
    <circle cx="707.3" cy="448.5" r="4.5"/>
    <circle cx="696.1" cy="442.0" r="4.5"/>
    <circle cx="696.1" cy="429.0" r="4.5"/>
    <circle cx="707.3" cy="422.5" r="4.5"/>
    <circle cx="718.6" cy="429.0" r="4.5"/>
    <circle cx="755.3" cy="381.7" r="4.5"/>
    <circle cx="755.3" cy="393.4" r="4.5"/>
    <circle cx="766.6" cy="394.0" r="4.5"/>
    <circle cx="755.3" cy="400.5" r="4.5"/>
    <circle cx="744.1" cy="394.0" r="4.5"/>
    <circle cx="744.1" cy="381.0" r="4.5"/>
    <circle cx="755.3" cy="374.5" r="4.5"/>
    <circle cx="766.6" cy="381.0" r="4.5"/>
    <circle cx="803.3" cy="333.7" r="4.5"/>
    <circle cx="803.3" cy="345.4" r="4.5"/>
    <circle cx="814.6" cy="346.0" r="4.5"/>
    <circle cx="803.3" cy="352.5" r="4.5"/>
    <circle cx="792.1" cy="346.0" r="4.5"/>
    <circle cx="792.1" cy="333.0" r="4.5"/>
    <circle cx="803.3" cy="326.5" r="4.5"/>
    <circle cx="814.6" cy="333.0" r="4.5"/>
    <circle cx="803.3" cy="429.7" r="4.5"/>
    <circle cx="803.3" cy="441.4" r="4.5"/>
    <circle cx="814.6" cy="442.0" r="4.5"/>
    <circle cx="803.3" cy="448.5" r="4.5"/>
    <circle cx="792.1" cy="442.0" r="4.5"/>
    <circle cx="792.1" cy="429.0" r="4.5"/>
    <circle cx="803.3" cy="422.5" r="4.5"/>
    <circle cx="814.6" cy="429.0" r="4.5"/>
    <circle cx="851.3" cy="381.7" r="4.5"/>
    <circle cx="851.3" cy="393.4" r="4.5"/>
    <circle cx="862.6" cy="394.0" r="4.5"/>
    <circle cx="851.3" cy="400.5" r="4.5"/>
    <circle cx="840.1" cy="394.0" r="4.5"/>
    <circle cx="840.1" cy="381.0" r="4.5"/>
    <circle cx="851.3" cy="374.5" r="4.5"/>
    <circle cx="862.6" cy="381.0" r="4.5"/>
    <circle cx="947.3" cy="381.7" r="4.5"/>
    <circle cx="947.3" cy="393.4" r="4.5"/>
    <circle cx="958.6" cy="394.0" r="4.5"/>
    <circle cx="947.3" cy="400.5" r="4.5"/>
    <circle cx="936.1" cy="394.0" r="4.5"/>
    <circle cx="936.1" cy="381.0" r="4.5"/>
    <circle cx="947.3" cy="374.5" r="4.5"/>
    <circle cx="958.6" cy="381.0" r="4.5"/>
    <circle cx="899.3" cy="333.7" r="4.5"/>
    <circle cx="899.3" cy="345.4" r="4.5"/>
    <circle cx="910.6" cy="346.0" r="4.5"/>
    <circle cx="899.3" cy="352.5" r="4.5"/>
    <circle cx="888.1" cy="346.0" r="4.5"/>
    <circle cx="888.1" cy="333.0" r="4.5"/>
    <circle cx="899.3" cy="326.5" r="4.5"/>
    <circle cx="910.6" cy="333.0" r="4.5"/>
    <circle cx="899.3" cy="429.7" r="4.5"/>
    <circle cx="899.3" cy="441.4" r="4.5"/>
    <circle cx="910.6" cy="442.0" r="4.5"/>
    <circle cx="899.3" cy="448.5" r="4.5"/>
    <circle cx="888.1" cy="442.0" r="4.5"/>
    <circle cx="888.1" cy="429.0" r="4.5"/>
    <circle cx="899.3" cy="422.5" r="4.5"/>
    <circle cx="910.6" cy="429.0" r="4.5"/>
  </g>
  <g fill="#ff9933">
    <circle cx="707.3" cy="387.5" r="4.5"/>
    <circle cx="720.3" cy="387.5" r="4.5"/>
    <circle cx="719.0" cy="393.2" r="4.5"/>
    <circle cx="715.4" cy="397.7" r="4.5"/>
    <circle cx="710.2" cy="400.2" r="4.5"/>
    <circle cx="704.4" cy="400.2" r="4.5"/>
    <circle cx="699.2" cy="397.7" r="4.5"/>
    <circle cx="695.6" cy="393.2" r="4.5"/>
    <circle cx="694.3" cy="387.5" r="4.5"/>
    <circle cx="695.6" cy="381.9" r="4.5"/>
    <circle cx="699.2" cy="377.4" r="4.5"/>
    <circle cx="704.4" cy="374.9" r="4.5"/>
    <circle cx="710.2" cy="374.9" r="4.5"/>
    <circle cx="715.4" cy="377.4" r="4.5"/>
    <circle cx="719.0" cy="381.9" r="4.5"/>
    <circle cx="803.3" cy="387.5" r="4.5"/>
    <circle cx="816.3" cy="387.5" r="4.5"/>
    <circle cx="815.0" cy="393.2" r="4.5"/>
    <circle cx="811.4" cy="397.7" r="4.5"/>
    <circle cx="806.2" cy="400.2" r="4.5"/>
    <circle cx="800.4" cy="400.2" r="4.5"/>
    <circle cx="795.2" cy="397.7" r="4.5"/>
    <circle cx="791.6" cy="393.2" r="4.5"/>
    <circle cx="790.3" cy="387.5" r="4.5"/>
    <circle cx="791.6" cy="381.9" r="4.5"/>
    <circle cx="795.2" cy="377.4" r="4.5"/>
    <circle cx="800.4" cy="374.9" r="4.5"/>
    <circle cx="806.2" cy="374.9" r="4.5"/>
    <circle cx="811.4" cy="377.4" r="4.5"/>
    <circle cx="815.0" cy="381.9" r="4.5"/>
    <circle cx="899.3" cy="387.5" r="4.5"/>
    <circle cx="912.3" cy="387.5" r="4.5"/>
    <circle cx="911.0" cy="393.2" r="4.5"/>
    <circle cx="907.4" cy="397.7" r="4.5"/>
    <circle cx="902.2" cy="400.2" r="4.5"/>
    <circle cx="896.4" cy="400.2" r="4.5"/>
    <circle cx="891.2" cy="397.7" r="4.5"/>
    <circle cx="887.6" cy="393.2" r="4.5"/>
    <circle cx="886.3" cy="387.5" r="4.5"/>
    <circle cx="887.6" cy="381.9" r="4.5"/>
    <circle cx="891.2" cy="377.4" r="4.5"/>
    <circle cx="896.4" cy="374.9" r="4.5"/>
    <circle cx="902.2" cy="374.9" r="4.5"/>
    <circle cx="907.4" cy="377.4" r="4.5"/>
    <circle cx="911.0" cy="381.9" r="4.5"/>
  </g>
</svg>
