<svg width="1024" height="1024" viewBox="0 0 1024 1024" xmlns="http://www.w3.org/2000/svg">
  <rect width="1024" height="1024" fill="#000000"/>
  <g stroke-width="2.2" stroke-linecap="round" fill="none">
    <line x1="441.2" y1="564.7" x2="559.9" y2="481.0" stroke="rgb(19,50,91)"/>
    <line x1="559.9" y1="481.0" x2="521.4" y2="345.7" stroke="rgb(20,53,95)"/>
    <line x1="559.9" y1="481.0" x2="688.4" y2="533.9" stroke="rgb(20,53,96)"/>
    <line x1="329.5" y1="481.0" x2="441.2" y2="564.7" stroke="rgb(20,54,97)"/>
    <line x1="451.1" y1="701.1" x2="441.2" y2="564.7" stroke="rgb(21,55,98)"/>
    <line x1="521.4" y1="345.7" x2="379.0" y2="345.7" stroke="rgb(22,58,102)"/>
    <line x1="379.0" y1="345.7" x2="329.5" y2="481.0" stroke="rgb(22,58,104)"/>
    <line x1="688.4" y1="533.9" x2="698.3" y2="670.4" stroke="rgb(23,60,106)"/>
    <line x1="521.4" y1="345.7" x2="611.5" y2="263.2" stroke="rgb(23,61,108)"/>
    <line x1="579.7" y1="754.0" x2="451.1" y2="701.1" stroke="rgb(23,62,108)"/>
    <line x1="778.5" y1="451.4" x2="688.4" y2="533.9" stroke="rgb(23,62,110)"/>
    <line x1="329.5" y1="481.0" x2="227.6" y2="533.9" stroke="rgb(24,64,112)"/>
    <line x1="579.7" y1="754.0" x2="698.3" y2="670.4" stroke="rgb(24,64,113)"/>
    <line x1="451.1" y1="701.1" x2="349.3" y2="754.0" stroke="rgb(24,65,114)"/>
    <line x1="379.0" y1="345.7" x2="326.7" y2="263.2" stroke="rgb(26,68,118)"/>
    <line x1="611.5" y1="263.2" x2="740.0" y2="316.1" stroke="rgb(26,71,122)"/>
    <line x1="740.0" y1="316.1" x2="778.5" y2="451.4" stroke="rgb(27,71,123)"/>
    <line x1="698.3" y1="670.4" x2="794.5" y2="672.2" stroke="rgb(27,72,124)"/>
    <line x1="557.2" y1="839.5" x2="579.7" y2="754.0" stroke="rgb(28,74,127)"/>
    <line x1="237.5" y1="670.4" x2="227.6" y2="533.9" stroke="rgb(28,74,128)"/>
    <line x1="349.3" y1="754.0" x2="237.5" y2="670.4" stroke="rgb(28,75,129)"/>
    <line x1="559.2" y1="180.8" x2="611.5" y2="263.2" stroke="rgb(28,76,130)"/>
    <line x1="844.0" y1="536.9" x2="778.5" y2="451.4" stroke="rgb(28,76,130)"/>
    <line x1="227.6" y1="533.9" x2="175.3" y2="451.4" stroke="rgb(29,79,135)"/>
    <line x1="349.3" y1="754.0" x2="414.8" y2="839.5" stroke="rgb(30,79,135)"/>
    <line x1="794.5" y1="672.2" x2="844.0" y2="536.9" stroke="rgb(30,82,139)"/>
    <line x1="326.7" y1="263.2" x2="416.8" y2="180.8" stroke="rgb(31,82,140)"/>
    <line x1="224.8" y1="316.1" x2="326.7" y2="263.2" stroke="rgb(31,83,141)"/>
    <line x1="740.0" y1="316.1" x2="767.1" y2="266.3" stroke="rgb(31,84,143)"/>
    <line x1="414.8" y1="839.5" x2="557.2" y2="839.5" stroke="rgb(31,85,143)"/>
    <line x1="559.2" y1="180.8" x2="416.8" y2="180.8" stroke="rgb(32,86,145)"/>
    <line x1="224.8" y1="316.1" x2="175.3" y2="451.4" stroke="rgb(33,88,149)"/>
    <line x1="191.3" y1="672.2" x2="237.5" y2="670.4" stroke="rgb(33,89,149)"/>
    <line x1="772.0" y1="757.7" x2="794.5" y2="672.2" stroke="rgb(33,89,150)"/>
    <line x1="557.2" y1="839.5" x2="653.4" y2="841.4" stroke="rgb(34,91,153)"/>
    <line x1="655.4" y1="182.6" x2="559.2" y2="180.8" stroke="rgb(34,92,155)"/>
    <line x1="871.1" y1="487.1" x2="844.0" y2="536.9" stroke="rgb(35,93,157)"/>
    <line x1="175.3" y1="451.4" x2="152.9" y2="536.9" stroke="rgb(36,96,160)"/>
    <line x1="414.8" y1="839.5" x2="368.6" y2="841.4" stroke="rgb(36,97,163)"/>
    <line x1="767.1" y1="266.3" x2="655.4" y2="182.6" stroke="rgb(36,97,163)"/>
    <line x1="772.0" y1="757.7" x2="653.4" y2="841.4" stroke="rgb(36,98,164)"/>
    <line x1="416.8" y1="180.8" x2="370.6" y2="182.6" stroke="rgb(37,99,165)"/>
    <line x1="252.0" y1="266.3" x2="224.8" y2="316.1" stroke="rgb(37,100,167)"/>
    <line x1="767.1" y1="266.3" x2="832.7" y2="351.8" stroke="rgb(38,102,169)"/>
    <line x1="152.9" y1="536.9" x2="191.3" y2="672.2" stroke="rgb(38,102,169)"/>
    <line x1="832.7" y1="351.8" x2="871.1" y2="487.1" stroke="rgb(39,106,176)"/>
    <line x1="256.9" y1="757.7" x2="191.3" y2="672.2" stroke="rgb(39,106,176)"/>
    <line x1="799.2" y1="707.9" x2="772.0" y2="757.7" stroke="rgb(40,108,179)"/>
    <line x1="653.4" y1="841.4" x2="607.2" y2="843.2" stroke="rgb(40,109,181)"/>
    <line x1="370.6" y1="182.6" x2="252.0" y2="266.3" stroke="rgb(41,110,181)"/>
    <line x1="368.6" y1="841.4" x2="256.9" y2="757.7" stroke="rgb(41,111,183)"/>
    <line x1="609.2" y1="184.5" x2="655.4" y2="182.6" stroke="rgb(41,111,183)"/>
    <line x1="871.1" y1="487.1" x2="848.7" y2="572.6" stroke="rgb(41,112,185)"/>
    <line x1="180.0" y1="487.1" x2="152.9" y2="536.9" stroke="rgb(42,115,189)"/>
    <line x1="464.8" y1="843.2" x2="368.6" y2="841.4" stroke="rgb(43,116,191)"/>
    <line x1="466.8" y1="184.5" x2="370.6" y2="182.6" stroke="rgb(43,117,193)"/>
    <line x1="252.0" y1="266.3" x2="229.5" y2="351.8" stroke="rgb(44,119,195)"/>
    <line x1="786.5" y1="353.6" x2="832.7" y2="351.8" stroke="rgb(44,119,196)"/>
    <line x1="799.2" y1="707.9" x2="848.7" y2="572.6" stroke="rgb(44,120,197)"/>
    <line x1="607.2" y1="843.2" x2="464.8" y2="843.2" stroke="rgb(45,122,200)"/>
    <line x1="466.8" y1="184.5" x2="609.2" y2="184.5" stroke="rgb(46,123,202)"/>
    <line x1="256.9" y1="757.7" x2="284.0" y2="707.9" stroke="rgb(46,124,203)"/>
    <line x1="697.3" y1="760.8" x2="799.2" y2="707.9" stroke="rgb(46,125,205)"/>
    <line x1="607.2" y1="843.2" x2="697.3" y2="760.8" stroke="rgb(46,126,206)"/>
    <line x1="180.0" y1="487.1" x2="229.5" y2="351.8" stroke="rgb(47,126,207)"/>
    <line x1="609.2" y1="184.5" x2="674.7" y2="270.0" stroke="rgb(47,129,210)"/>
    <line x1="848.7" y1="572.6" x2="796.4" y2="490.1" stroke="rgb(48,129,211)"/>
    <line x1="245.5" y1="572.6" x2="180.0" y2="487.1" stroke="rgb(49,132,216)"/>
    <line x1="412.5" y1="760.8" x2="464.8" y2="843.2" stroke="rgb(49,132,216)"/>
    <line x1="674.7" y1="270.0" x2="786.5" y2="353.6" stroke="rgb(49,133,217)"/>
    <line x1="796.4" y1="490.1" x2="786.5" y2="353.6" stroke="rgb(49,134,218)"/>
    <line x1="444.3" y1="270.0" x2="466.8" y2="184.5" stroke="rgb(49,134,219)"/>
    <line x1="229.5" y1="351.8" x2="325.7" y2="353.6" stroke="rgb(50,136,221)"/>
    <line x1="284.0" y1="707.9" x2="245.5" y2="572.6" stroke="rgb(50,137,223)"/>
    <line x1="284.0" y1="707.9" x2="412.5" y2="760.8" stroke="rgb(51,137,224)"/>
    <line x1="645.0" y1="678.3" x2="697.3" y2="760.8" stroke="rgb(51,140,228)"/>
    <line x1="674.7" y1="270.0" x2="572.9" y2="322.9" stroke="rgb(53,143,232)"/>
    <line x1="444.3" y1="270.0" x2="325.7" y2="353.6" stroke="rgb(53,144,233)"/>
    <line x1="694.5" y1="543.0" x2="796.4" y2="490.1" stroke="rgb(53,144,234)"/>
    <line x1="335.6" y1="490.1" x2="245.5" y2="572.6" stroke="rgb(54,146,236)"/>
    <line x1="572.9" y1="322.9" x2="444.3" y2="270.0" stroke="rgb(54,146,237)"/>
    <line x1="502.6" y1="678.3" x2="412.5" y2="760.8" stroke="rgb(54,147,238)"/>
    <line x1="325.7" y1="353.6" x2="335.6" y2="490.1" stroke="rgb(54,148,240)"/>
    <line x1="694.5" y1="543.0" x2="645.0" y2="678.3" stroke="rgb(55,150,242)"/>
    <line x1="645.0" y1="678.3" x2="502.6" y2="678.3" stroke="rgb(55,150,243)"/>
    <line x1="582.8" y1="459.3" x2="572.9" y2="322.9" stroke="rgb(56,153,248)"/>
    <line x1="582.8" y1="459.3" x2="694.5" y2="543.0" stroke="rgb(57,154,249)"/>
    <line x1="464.1" y1="543.0" x2="335.6" y2="490.1" stroke="rgb(57,155,250)"/>
    <line x1="502.6" y1="678.3" x2="464.1" y2="543.0" stroke="rgb(57,155,251)"/>
    <line x1="464.1" y1="543.0" x2="582.8" y2="459.3" stroke="rgb(58,158,254)"/>
  </g>
  <g fill="#ffd84a">
    <circle cx="566.8" cy="485.0" r="2.6"/>
    <circle cx="559.9" cy="489.0" r="2.6"/>
    <circle cx="552.9" cy="485.0" r="2.6"/>
    <circle cx="552.9" cy="477.0" r="2.6"/>
    <circle cx="559.9" cy="473.0" r="2.6"/>
    <circle cx="566.8" cy="477.0" r="2.6"/>
    <circle cx="448.2" cy="568.7" r="2.6"/>
    <circle cx="441.2" cy="572.7" r="2.6"/>
    <circle cx="434.3" cy="568.7" r="2.6"/>
    <circle cx="434.3" cy="560.7" r="2.6"/>
    <circle cx="441.2" cy="556.7" r="2.6"/>
    <circle cx="448.2" cy="560.7" r="2.6"/>
    <circle cx="528.3" cy="349.7" r="2.6"/>
    <circle cx="521.4" cy="353.7" r="2.6"/>
    <circle cx="514.5" cy="349.7" r="2.6"/>
    <circle cx="514.5" cy="341.7" r="2.6"/>
    <circle cx="521.4" cy="337.7" r="2.6"/>
    <circle cx="528.3" cy="341.7" r="2.6"/>
    <circle cx="695.3" cy="537.9" r="2.6"/>
    <circle cx="688.4" cy="541.9" r="2.6"/>
    <circle cx="681.5" cy="537.9" r="2.6"/>
    <circle cx="681.5" cy="529.9" r="2.6"/>
    <circle cx="688.4" cy="525.9" r="2.6"/>
    <circle cx="695.3" cy="529.9" r="2.6"/>
    <circle cx="336.4" cy="485.0" r="2.6"/>
    <circle cx="329.5" cy="489.0" r="2.6"/>
    <circle cx="322.6" cy="485.0" r="2.6"/>
    <circle cx="322.6" cy="477.0" r="2.6"/>
    <circle cx="329.5" cy="473.0" r="2.6"/>
    <circle cx="336.4" cy="477.0" r="2.6"/>
    <circle cx="458.1" cy="705.1" r="2.6"/>
    <circle cx="451.1" cy="709.1" r="2.6"/>
    <circle cx="444.2" cy="705.1" r="2.6"/>
    <circle cx="444.2" cy="697.1" r="2.6"/>
    <circle cx="451.1" cy="693.1" r="2.6"/>
    <circle cx="458.1" cy="697.1" r="2.6"/>
    <circle cx="386.0" cy="349.7" r="2.6"/>
    <circle cx="379.0" cy="353.7" r="2.6"/>
    <circle cx="372.1" cy="349.7" r="2.6"/>
    <circle cx="372.1" cy="341.7" r="2.6"/>
    <circle cx="379.0" cy="337.7" r="2.6"/>
    <circle cx="386.0" cy="341.7" r="2.6"/>
    <circle cx="705.2" cy="674.4" r="2.6"/>
    <circle cx="698.3" cy="678.4" r="2.6"/>
    <circle cx="691.4" cy="674.4" r="2.6"/>
    <circle cx="691.4" cy="666.4" r="2.6"/>
    <circle cx="698.3" cy="662.4" r="2.6"/>
    <circle cx="705.2" cy="666.4" r="2.6"/>
    <circle cx="586.6" cy="758.0" r="2.6"/>
    <circle cx="579.7" cy="762.0" r="2.6"/>
    <circle cx="572.7" cy="758.0" r="2.6"/>
    <circle cx="572.7" cy="750.0" r="2.6"/>
    <circle cx="579.7" cy="746.0" r="2.6"/>
    <circle cx="586.6" cy="750.0" r="2.6"/>
    <circle cx="618.4" cy="267.2" r="2.6"/>
    <circle cx="611.5" cy="271.2" r="2.6"/>
    <circle cx="604.6" cy="267.2" r="2.6"/>
    <circle cx="604.6" cy="259.2" r="2.6"/>
    <circle cx="611.5" cy="255.2" r="2.6"/>
    <circle cx="618.4" cy="259.2" r="2.6"/>
    <circle cx="785.4" cy="455.4" r="2.6"/>
    <circle cx="778.5" cy="459.4" r="2.6"/>
    <circle cx="771.5" cy="455.4" r="2.6"/>
    <circle cx="771.5" cy="447.4" r="2.6"/>
    <circle cx="778.5" cy="443.4" r="2.6"/>
    <circle cx="785.4" cy="447.4" r="2.6"/>
    <circle cx="234.5" cy="537.9" r="2.6"/>
    <circle cx="227.6" cy="541.9" r="2.6"/>
    <circle cx="220.7" cy="537.9" r="2.6"/>
    <circle cx="220.7" cy="529.9" r="2.6"/>
    <circle cx="227.6" cy="525.9" r="2.6"/>
    <circle cx="234.5" cy="529.9" r="2.6"/>
    <circle cx="356.2" cy="758.0" r="2.6"/>
    <circle cx="349.3" cy="762.0" r="2.6"/>
    <circle cx="342.3" cy="758.0" r="2.6"/>
    <circle cx="342.3" cy="750.0" r="2.6"/>
    <circle cx="349.3" cy="746.0" r="2.6"/>
    <circle cx="356.2" cy="750.0" r="2.6"/>
    <circle cx="746.9" cy="320.1" r="2.6"/>
    <circle cx="740.0" cy="324.1" r="2.6"/>
    <circle cx="733.1" cy="320.1" r="2.6"/>
    <circle cx="733.1" cy="312.1" r="2.6"/>
    <circle cx="740.0" cy="308.1" r="2.6"/>
    <circle cx="746.9" cy="312.1" r="2.6"/>
    <circle cx="333.6" cy="267.2" r="2.6"/>
    <circle cx="326.7" cy="271.2" r="2.6"/>
    <circle cx="319.8" cy="267.2" r="2.6"/>
    <circle cx="319.8" cy="259.2" r="2.6"/>
    <circle cx="326.7" cy="255.2" r="2.6"/>
    <circle cx="333.6" cy="259.2" r="2.6"/>
    <circle cx="244.4" cy="674.4" r="2.6"/>
    <circle cx="237.5" cy="678.4" r="2.6"/>
    <circle cx="230.6" cy="674.4" r="2.6"/>
    <circle cx="230.6" cy="666.4" r="2.6"/>
    <circle cx="237.5" cy="662.4" r="2.6"/>
    <circle cx="244.4" cy="666.4" r="2.6"/>
    <circle cx="801.4" cy="676.2" r="2.6"/>
    <circle cx="794.5" cy="680.2" r="2.6"/>
    <circle cx="787.5" cy="676.2" r="2.6"/>
    <circle cx="787.5" cy="668.2" r="2.6"/>
    <circle cx="794.5" cy="664.2" r="2.6"/>
    <circle cx="801.4" cy="668.2" r="2.6"/>
    <circle cx="564.2" cy="843.5" r="2.6"/>
    <circle cx="557.2" cy="847.5" r="2.6"/>
    <circle cx="550.3" cy="843.5" r="2.6"/>
    <circle cx="550.3" cy="835.5" r="2.6"/>
    <circle cx="557.2" cy="831.5" r="2.6"/>
    <circle cx="564.2" cy="835.5" r="2.6"/>
    <circle cx="851.0" cy="540.9" r="2.6"/>
    <circle cx="844.0" cy="544.9" r="2.6"/>
    <circle cx="837.1" cy="540.9" r="2.6"/>
    <circle cx="837.1" cy="532.9" r="2.6"/>
    <circle cx="844.0" cy="528.9" r="2.6"/>
    <circle cx="851.0" cy="532.9" r="2.6"/>
    <circle cx="566.1" cy="184.8" r="2.6"/>
    <circle cx="559.2" cy="188.8" r="2.6"/>
    <circle cx="552.2" cy="184.8" r="2.6"/>
    <circle cx="552.2" cy="176.8" r="2.6"/>
    <circle cx="559.2" cy="172.8" r="2.6"/>
    <circle cx="566.1" cy="176.8" r="2.6"/>
    <circle cx="421.8" cy="843.5" r="2.6"/>
    <circle cx="414.8" cy="847.5" r="2.6"/>
    <circle cx="407.9" cy="843.5" r="2.6"/>
    <circle cx="407.9" cy="835.5" r="2.6"/>
    <circle cx="414.8" cy="831.5" r="2.6"/>
    <circle cx="421.8" cy="835.5" r="2.6"/>
    <circle cx="182.2" cy="455.4" r="2.6"/>
    <circle cx="175.3" cy="459.4" r="2.6"/>
    <circle cx="168.4" cy="455.4" r="2.6"/>
    <circle cx="168.4" cy="447.4" r="2.6"/>
    <circle cx="175.3" cy="443.4" r="2.6"/>
    <circle cx="182.2" cy="447.4" r="2.6"/>
    <circle cx="423.7" cy="184.8" r="2.6"/>
    <circle cx="416.8" cy="188.8" r="2.6"/>
    <circle cx="409.9" cy="184.8" r="2.6"/>
    <circle cx="409.9" cy="176.8" r="2.6"/>
    <circle cx="416.8" cy="172.8" r="2.6"/>
    <circle cx="423.7" cy="176.8" r="2.6"/>
    <circle cx="231.8" cy="320.1" r="2.6"/>
    <circle cx="224.8" cy="324.1" r="2.6"/>
    <circle cx="217.9" cy="320.1" r="2.6"/>
    <circle cx="217.9" cy="312.1" r="2.6"/>
    <circle cx="224.8" cy="308.1" r="2.6"/>
    <circle cx="231.8" cy="312.1" r="2.6"/>
    <circle cx="774.1" cy="270.3" r="2.6"/>
    <circle cx="767.1" cy="274.3" r="2.6"/>
    <circle cx="760.2" cy="270.3" r="2.6"/>
    <circle cx="760.2" cy="262.3" r="2.6"/>
    <circle cx="767.1" cy="258.3" r="2.6"/>
    <circle cx="774.1" cy="262.3" r="2.6"/>
    <circle cx="779.0" cy="761.7" r="2.6"/>
    <circle cx="772.0" cy="765.7" r="2.6"/>
    <circle cx="765.1" cy="761.7" r="2.6"/>
    <circle cx="765.1" cy="753.7" r="2.6"/>
    <circle cx="772.0" cy="749.7" r="2.6"/>
    <circle cx="779.0" cy="753.7" r="2.6"/>
    <circle cx="660.3" cy="845.4" r="2.6"/>
    <circle cx="653.4" cy="849.4" r="2.6"/>
    <circle cx="646.5" cy="845.4" r="2.6"/>
    <circle cx="646.5" cy="837.4" r="2.6"/>
    <circle cx="653.4" cy="833.4" r="2.6"/>
    <circle cx="660.3" cy="837.4" r="2.6"/>
    <circle cx="198.2" cy="676.2" r="2.6"/>
    <circle cx="191.3" cy="680.2" r="2.6"/>
    <circle cx="184.4" cy="676.2" r="2.6"/>
    <circle cx="184.4" cy="668.2" r="2.6"/>
    <circle cx="191.3" cy="664.2" r="2.6"/>
    <circle cx="198.2" cy="668.2" r="2.6"/>
    <circle cx="662.3" cy="186.6" r="2.6"/>
    <circle cx="655.4" cy="190.6" r="2.6"/>
    <circle cx="648.4" cy="186.6" r="2.6"/>
    <circle cx="648.4" cy="178.6" r="2.6"/>
    <circle cx="655.4" cy="174.6" r="2.6"/>
    <circle cx="662.3" cy="178.6" r="2.6"/>
    <circle cx="878.1" cy="491.1" r="2.6"/>
    <circle cx="871.1" cy="495.1" r="2.6"/>
    <circle cx="864.2" cy="491.1" r="2.6"/>
    <circle cx="864.2" cy="483.1" r="2.6"/>
    <circle cx="871.1" cy="479.1" r="2.6"/>
    <circle cx="878.1" cy="483.1" r="2.6"/>
    <circle cx="159.8" cy="540.9" r="2.6"/>
    <circle cx="152.9" cy="544.9" r="2.6"/>
    <circle cx="145.9" cy="540.9" r="2.6"/>
    <circle cx="145.9" cy="532.9" r="2.6"/>
    <circle cx="152.9" cy="528.9" r="2.6"/>
    <circle cx="159.8" cy="532.9" r="2.6"/>
    <circle cx="375.6" cy="845.4" r="2.6"/>
    <circle cx="368.6" cy="849.4" r="2.6"/>
    <circle cx="361.7" cy="845.4" r="2.6"/>
    <circle cx="361.7" cy="837.4" r="2.6"/>
    <circle cx="368.6" cy="833.4" r="2.6"/>
    <circle cx="375.6" cy="837.4" r="2.6"/>
    <circle cx="839.6" cy="355.8" r="2.6"/>
    <circle cx="832.7" cy="359.8" r="2.6"/>
    <circle cx="825.8" cy="355.8" r="2.6"/>
    <circle cx="825.8" cy="347.8" r="2.6"/>
    <circle cx="832.7" cy="343.8" r="2.6"/>
    <circle cx="839.6" cy="347.8" r="2.6"/>
    <circle cx="377.5" cy="186.6" r="2.6"/>
    <circle cx="370.6" cy="190.6" r="2.6"/>
    <circle cx="363.7" cy="186.6" r="2.6"/>
    <circle cx="363.7" cy="178.6" r="2.6"/>
    <circle cx="370.6" cy="174.6" r="2.6"/>
    <circle cx="377.5" cy="178.6" r="2.6"/>
    <circle cx="258.9" cy="270.3" r="2.6"/>
    <circle cx="252.0" cy="274.3" r="2.6"/>
    <circle cx="245.0" cy="270.3" r="2.6"/>
    <circle cx="245.0" cy="262.3" r="2.6"/>
    <circle cx="252.0" cy="258.3" r="2.6"/>
    <circle cx="258.9" cy="262.3" r="2.6"/>
    <circle cx="263.8" cy="761.7" r="2.6"/>
    <circle cx="256.9" cy="765.7" r="2.6"/>
    <circle cx="249.9" cy="761.7" r="2.6"/>
    <circle cx="249.9" cy="753.7" r="2.6"/>
    <circle cx="256.9" cy="749.7" r="2.6"/>
    <circle cx="263.8" cy="753.7" r="2.6"/>
    <circle cx="806.1" cy="711.9" r="2.6"/>
    <circle cx="799.2" cy="715.9" r="2.6"/>
    <circle cx="792.2" cy="711.9" r="2.6"/>
    <circle cx="792.2" cy="703.9" r="2.6"/>
    <circle cx="799.2" cy="699.9" r="2.6"/>
    <circle cx="806.1" cy="703.9" r="2.6"/>
    <circle cx="614.1" cy="847.2" r="2.6"/>
    <circle cx="607.2" cy="851.2" r="2.6"/>
    <circle cx="600.3" cy="847.2" r="2.6"/>
    <circle cx="600.3" cy="839.2" r="2.6"/>
    <circle cx="607.2" cy="835.2" r="2.6"/>
    <circle cx="614.1" cy="839.2" r="2.6"/>
    <circle cx="855.6" cy="576.6" r="2.6"/>
    <circle cx="848.7" cy="580.6" r="2.6"/>
    <circle cx="841.8" cy="576.6" r="2.6"/>
    <circle cx="841.8" cy="568.6" r="2.6"/>
    <circle cx="848.7" cy="564.6" r="2.6"/>
    <circle cx="855.6" cy="568.6" r="2.6"/>
    <circle cx="616.1" cy="188.5" r="2.6"/>
    <circle cx="609.2" cy="192.5" r="2.6"/>
    <circle cx="602.2" cy="188.5" r="2.6"/>
    <circle cx="602.2" cy="180.5" r="2.6"/>
    <circle cx="609.2" cy="176.5" r="2.6"/>
    <circle cx="616.1" cy="180.5" r="2.6"/>
    <circle cx="471.8" cy="847.2" r="2.6"/>
    <circle cx="464.8" cy="851.2" r="2.6"/>
    <circle cx="457.9" cy="847.2" r="2.6"/>
    <circle cx="457.9" cy="839.2" r="2.6"/>
    <circle cx="464.8" cy="835.2" r="2.6"/>
    <circle cx="471.8" cy="839.2" r="2.6"/>
    <circle cx="186.9" cy="491.1" r="2.6"/>
    <circle cx="180.0" cy="495.1" r="2.6"/>
    <circle cx="173.0" cy="491.1" r="2.6"/>
    <circle cx="173.0" cy="483.1" r="2.6"/>
    <circle cx="180.0" cy="479.1" r="2.6"/>
    <circle cx="186.9" cy="483.1" r="2.6"/>
    <circle cx="473.7" cy="188.5" r="2.6"/>
    <circle cx="466.8" cy="192.5" r="2.6"/>
    <circle cx="459.8" cy="188.5" r="2.6"/>
    <circle cx="459.8" cy="180.5" r="2.6"/>
    <circle cx="466.8" cy="176.5" r="2.6"/>
    <circle cx="473.7" cy="180.5" r="2.6"/>
    <circle cx="236.5" cy="355.8" r="2.6"/>
    <circle cx="229.5" cy="359.8" r="2.6"/>
    <circle cx="222.6" cy="355.8" r="2.6"/>
    <circle cx="222.6" cy="347.8" r="2.6"/>
    <circle cx="229.5" cy="343.8" r="2.6"/>
    <circle cx="236.5" cy="347.8" r="2.6"/>
    <circle cx="793.4" cy="357.6" r="2.6"/>
    <circle cx="786.5" cy="361.6" r="2.6"/>
    <circle cx="779.6" cy="357.6" r="2.6"/>
    <circle cx="779.6" cy="349.6" r="2.6"/>
    <circle cx="786.5" cy="345.6" r="2.6"/>
    <circle cx="793.4" cy="349.6" r="2.6"/>
    <circle cx="704.2" cy="764.8" r="2.6"/>
    <circle cx="697.3" cy="768.8" r="2.6"/>
    <circle cx="690.4" cy="764.8" r="2.6"/>
    <circle cx="690.4" cy="756.8" r="2.6"/>
    <circle cx="697.3" cy="752.8" r="2.6"/>
    <circle cx="704.2" cy="756.8" r="2.6"/>
    <circle cx="290.9" cy="711.9" r="2.6"/>
    <circle cx="284.0" cy="715.9" r="2.6"/>
    <circle cx="277.1" cy="711.9" r="2.6"/>
    <circle cx="277.1" cy="703.9" r="2.6"/>
    <circle cx="284.0" cy="699.9" r="2.6"/>
    <circle cx="290.9" cy="703.9" r="2.6"/>
    <circle cx="681.7" cy="274.0" r="2.6"/>
    <circle cx="674.7" cy="278.0" r="2.6"/>
    <circle cx="667.8" cy="274.0" r="2.6"/>
    <circle cx="667.8" cy="266.0" r="2.6"/>
    <circle cx="674.7" cy="262.0" r="2.6"/>
    <circle cx="681.7" cy="266.0" r="2.6"/>
    <circle cx="803.3" cy="494.1" r="2.6"/>
    <circle cx="796.4" cy="498.1" r="2.6"/>
    <circle cx="789.5" cy="494.1" r="2.6"/>
    <circle cx="789.5" cy="486.1" r="2.6"/>
    <circle cx="796.4" cy="482.1" r="2.6"/>
    <circle cx="803.3" cy="486.1" r="2.6"/>
    <circle cx="252.5" cy="576.6" r="2.6"/>
    <circle cx="245.5" cy="580.6" r="2.6"/>
    <circle cx="238.6" cy="576.6" r="2.6"/>
    <circle cx="238.6" cy="568.6" r="2.6"/>
    <circle cx="245.5" cy="564.6" r="2.6"/>
    <circle cx="252.5" cy="568.6" r="2.6"/>
    <circle cx="419.4" cy="764.8" r="2.6"/>
    <circle cx="412.5" cy="768.8" r="2.6"/>
    <circle cx="405.6" cy="764.8" r="2.6"/>
    <circle cx="405.6" cy="756.8" r="2.6"/>
    <circle cx="412.5" cy="752.8" r="2.6"/>
    <circle cx="419.4" cy="756.8" r="2.6"/>
    <circle cx="451.3" cy="274.0" r="2.6"/>
    <circle cx="444.3" cy="278.0" r="2.6"/>
    <circle cx="437.4" cy="274.0" r="2.6"/>
    <circle cx="437.4" cy="266.0" r="2.6"/>
    <circle cx="444.3" cy="262.0" r="2.6"/>
    <circle cx="451.3" cy="266.0" r="2.6"/>
    <circle cx="332.6" cy="357.6" r="2.6"/>
    <circle cx="325.7" cy="361.6" r="2.6"/>
    <circle cx="318.8" cy="357.6" r="2.6"/>
    <circle cx="318.8" cy="349.6" r="2.6"/>
    <circle cx="325.7" cy="345.6" r="2.6"/>
    <circle cx="332.6" cy="349.6" r="2.6"/>
    <circle cx="651.9" cy="682.3" r="2.6"/>
    <circle cx="645.0" cy="686.3" r="2.6"/>
    <circle cx="638.0" cy="682.3" r="2.6"/>
    <circle cx="638.0" cy="674.3" r="2.6"/>
    <circle cx="645.0" cy="670.3" r="2.6"/>
    <circle cx="651.9" cy="674.3" r="2.6"/>
    <circle cx="579.8" cy="326.9" r="2.6"/>
    <circle cx="572.9" cy="330.9" r="2.6"/>
    <circle cx="565.9" cy="326.9" r="2.6"/>
    <circle cx="565.9" cy="318.9" r="2.6"/>
    <circle cx="572.9" cy="314.9" r="2.6"/>
    <circle cx="579.8" cy="318.9" r="2.6"/>
    <circle cx="701.4" cy="547.0" r="2.6"/>
    <circle cx="694.5" cy="551.0" r="2.6"/>
    <circle cx="687.6" cy="547.0" r="2.6"/>
    <circle cx="687.6" cy="539.0" r="2.6"/>
    <circle cx="694.5" cy="535.0" r="2.6"/>
    <circle cx="701.4" cy="539.0" r="2.6"/>
    <circle cx="342.5" cy="494.1" r="2.6"/>
    <circle cx="335.6" cy="498.1" r="2.6"/>
    <circle cx="328.7" cy="494.1" r="2.6"/>
    <circle cx="328.7" cy="486.1" r="2.6"/>
    <circle cx="335.6" cy="482.1" r="2.6"/>
    <circle cx="342.5" cy="486.1" r="2.6"/>
    <circle cx="509.5" cy="682.3" r="2.6"/>
    <circle cx="502.6" cy="686.3" r="2.6"/>
    <circle cx="495.7" cy="682.3" r="2.6"/>
    <circle cx="495.7" cy="674.3" r="2.6"/>
    <circle cx="502.6" cy="670.3" r="2.6"/>
    <circle cx="509.5" cy="674.3" r="2.6"/>
    <circle cx="589.7" cy="463.3" r="2.6"/>
    <circle cx="582.8" cy="467.3" r="2.6"/>
    <circle cx="575.8" cy="463.3" r="2.6"/>
    <circle cx="575.8" cy="455.3" r="2.6"/>
    <circle cx="582.8" cy="451.3" r="2.6"/>
    <circle cx="589.7" cy="455.3" r="2.6"/>
    <circle cx="471.1" cy="547.0" r="2.6"/>
    <circle cx="464.1" cy="551.0" r="2.6"/>
    <circle cx="457.2" cy="547.0" r="2.6"/>
    <circle cx="457.2" cy="539.0" r="2.6"/>
    <circle cx="464.1" cy="535.0" r="2.6"/>
    <circle cx="471.1" cy="539.0" r="2.6"/>
  </g>
</svg>
