<svg width="1024" height="1024" viewBox="0 0 1024 1024" xmlns="http://www.w3.org/2000/svg">
  <rect width="1024" height="1024" fill="#000000"/>
  <g stroke="#3a9eff" stroke-width="3.5" stroke-linecap="round" fill="none">
    <line x1="512.0" y1="337.0" x2="663.6" y2="424.5"/>
    <line x1="663.6" y1="424.5" x2="663.6" y2="599.5"/>
    <line x1="663.6" y1="599.5" x2="512.0" y2="687.0"/>
    <line x1="512.0" y1="687.0" x2="360.4" y2="599.5"/>
    <line x1="360.4" y1="599.5" x2="360.4" y2="424.5"/>
    <line x1="360.4" y1="424.5" x2="512.0" y2="337.0"/>
    <line x1="663.6" y1="424.5" x2="713.9" y2="343.9"/>
    <line x1="713.9" y1="343.9" x2="745.7" y2="293.1"/>
    <line x1="663.6" y1="424.5" x2="758.5" y2="421.2"/>
    <line x1="663.6" y1="599.5" x2="758.5" y2="602.8"/>
    <line x1="663.6" y1="599.5" x2="713.9" y2="680.1"/>
    <line x1="713.9" y1="680.1" x2="745.7" y2="730.9"/>
    <line x1="512.0" y1="687.0" x2="556.6" y2="770.9"/>
    <line x1="556.6" y1="770.9" x2="584.8" y2="823.9"/>
    <line x1="512.0" y1="687.0" x2="467.4" y2="770.9"/>
    <line x1="360.4" y1="599.5" x2="310.1" y2="680.1"/>
    <line x1="360.4" y1="599.5" x2="265.5" y2="602.8"/>
    <line x1="265.5" y1="602.8" x2="205.5" y2="604.9"/>
    <line x1="360.4" y1="424.5" x2="255.5" y2="420.8"/>
    <line x1="255.5" y1="420.8" x2="258.1" y2="470.8"/>
    <line x1="255.5" y1="420.8" x2="261.6" y2="371.2"/>
    <line x1="255.5" y1="420.8" x2="145.6" y2="417.0"/>
    <line x1="145.6" y1="417.0" x2="75.6" y2="414.6"/>
    <line x1="360.4" y1="424.5" x2="310.1" y2="343.9"/>
  </g>
  <g fill="#ff4d4d">
    <circle cx="512.0" cy="329.8" r="6"/>
    <circle cx="512.0" cy="344.2" r="6"/>
    <circle cx="525.9" cy="345.0" r="6"/>
    <circle cx="512.0" cy="353.0" r="6"/>
    <circle cx="498.1" cy="345.0" r="6"/>
    <circle cx="498.1" cy="329.0" r="6"/>
    <circle cx="512.0" cy="321.0" r="6"/>
    <circle cx="525.9" cy="329.0" r="6"/>
    <circle cx="713.9" cy="336.7" r="6"/>
    <circle cx="713.9" cy="351.1" r="6"/>
    <circle cx="727.8" cy="351.9" r="6"/>
    <circle cx="713.9" cy="359.9" r="6"/>
    <circle cx="700.0" cy="351.9" r="6"/>
    <circle cx="700.0" cy="335.9" r="6"/>
    <circle cx="713.9" cy="327.9" r="6"/>
    <circle cx="727.8" cy="335.9" r="6"/>
    <circle cx="713.9" cy="672.9" r="6"/>
    <circle cx="713.9" cy="687.3" r="6"/>
    <circle cx="727.8" cy="688.1" r="6"/>
    <circle cx="713.9" cy="696.1" r="6"/>
    <circle cx="700.0" cy="688.1" r="6"/>
    <circle cx="700.0" cy="672.1" r="6"/>
    <circle cx="713.9" cy="664.1" r="6"/>
    <circle cx="727.8" cy="672.1" r="6"/>
    <circle cx="556.6" cy="763.7" r="6"/>
    <circle cx="556.6" cy="778.1" r="6"/>
    <circle cx="570.5" cy="778.9" r="6"/>
    <circle cx="556.6" cy="786.9" r="6"/>
    <circle cx="542.7" cy="778.9" r="6"/>
    <circle cx="542.7" cy="762.9" r="6"/>
    <circle cx="556.6" cy="754.9" r="6"/>
    <circle cx="570.5" cy="762.9" r="6"/>
    <circle cx="265.5" cy="595.6" r="6"/>
    <circle cx="265.5" cy="610.0" r="6"/>
    <circle cx="279.4" cy="610.8" r="6"/>
    <circle cx="265.5" cy="618.8" r="6"/>
    <circle cx="251.6" cy="610.8" r="6"/>
    <circle cx="251.6" cy="594.8" r="6"/>
    <circle cx="265.5" cy="586.8" r="6"/>
    <circle cx="279.4" cy="594.8" r="6"/>
    <circle cx="145.6" cy="409.8" r="6"/>
    <circle cx="145.6" cy="424.2" r="6"/>
    <circle cx="159.4" cy="425.0" r="6"/>
    <circle cx="145.6" cy="433.0" r="6"/>
    <circle cx="131.7" cy="425.0" r="6"/>
    <circle cx="131.7" cy="409.0" r="6"/>
    <circle cx="145.6" cy="401.0" r="6"/>
    <circle cx="159.4" cy="409.0" r="6"/>
  </g>
  <g fill="#ffd84a">
    <circle cx="677.4" cy="432.5" r="6"/>
    <circle cx="663.6" cy="440.5" r="6"/>
    <circle cx="649.7" cy="432.5" r="6"/>
    <circle cx="649.7" cy="416.5" r="6"/>
    <circle cx="663.6" cy="408.5" r="6"/>
    <circle cx="677.4" cy="416.5" r="6"/>
    <circle cx="677.4" cy="607.5" r="6"/>
    <circle cx="663.6" cy="615.5" r="6"/>
    <circle cx="649.7" cy="607.5" r="6"/>
    <circle cx="649.7" cy="591.5" r="6"/>
    <circle cx="663.6" cy="583.5" r="6"/>
    <circle cx="677.4" cy="591.5" r="6"/>
    <circle cx="525.9" cy="695.0" r="6"/>
    <circle cx="512.0" cy="703.0" r="6"/>
    <circle cx="498.1" cy="695.0" r="6"/>
    <circle cx="498.1" cy="679.0" r="6"/>
    <circle cx="512.0" cy="671.0" r="6"/>
    <circle cx="525.9" cy="679.0" r="6"/>
    <circle cx="374.3" cy="607.5" r="6"/>
    <circle cx="360.4" cy="615.5" r="6"/>
    <circle cx="346.6" cy="607.5" r="6"/>
    <circle cx="346.6" cy="591.5" r="6"/>
    <circle cx="360.4" cy="583.5" r="6"/>
    <circle cx="374.3" cy="591.5" r="6"/>
    <circle cx="374.3" cy="432.5" r="6"/>
    <circle cx="360.4" cy="440.5" r="6"/>
    <circle cx="346.6" cy="432.5" r="6"/>
    <circle cx="346.6" cy="416.5" r="6"/>
    <circle cx="360.4" cy="408.5" r="6"/>
    <circle cx="374.3" cy="416.5" r="6"/>
    <circle cx="269.4" cy="428.8" r="6"/>
    <circle cx="255.5" cy="436.8" r="6"/>
    <circle cx="241.7" cy="428.8" r="6"/>
    <circle cx="241.7" cy="412.8" r="6"/>
    <circle cx="255.5" cy="404.8" r="6"/>
    <circle cx="269.4" cy="412.8" r="6"/>
  </g>
  <g fill="#ffffff">
    <circle cx="745.7" cy="293.1" r="6"/>
    <circle cx="758.5" cy="421.2" r="6"/>
    <circle cx="758.5" cy="602.8" r="6"/>
    <circle cx="745.7" cy="730.9" r="6"/>
    <circle cx="584.8" cy="823.9" r="6"/>
    <circle cx="467.4" cy="770.9" r="6"/>
    <circle cx="310.1" cy="680.1" r="6"/>
    <circle cx="205.5" cy="604.9" r="6"/>
    <circle cx="258.1" cy="470.8" r="6"/>
    <circle cx="261.6" cy="371.2" r="6"/>
    <circle cx="75.6" cy="414.6" r="6"/>
    <circle cx="310.1" cy="343.9" r="6"/>
  </g>
</svg>
